<svg xmlns="http://www.w3.org/2000/svg" xmlns:xlink="http://www.w3.org/1999/xlink" width="500" zoomAndPan="magnify" viewBox="0 0 375 225" height="300" preserveAspectRatio="xMidYMid meet" version="1.0"><defs><clipPath id="9e32f54b4f"><path d="M 155 13 L 371 13 L 371 197 L 155 197 Z M 155 13 " clip-rule="nonzero"/></clipPath><clipPath id="ad12707bef"><path d="M 138.953125 44.132812 L 286.695312 -56.039062 L 411.699219 128.328125 L 263.957031 228.5 Z M 138.953125 44.132812 " clip-rule="nonzero"/></clipPath><clipPath id="523b43be8b"><path d="M 138.953125 44.132812 L 286.695312 -56.039062 L 411.699219 128.328125 L 263.957031 228.5 Z M 138.953125 44.132812 " clip-rule="nonzero"/></clipPath><clipPath id="a54570d167"><path d="M 138.953125 44.132812 L 286.695312 -56.039062 L 411.699219 128.328125 L 263.957031 228.5 Z M 138.953125 44.132812 " clip-rule="nonzero"/></clipPath><clipPath id="e5446764b2"><path d="M 152 10 L 374 10 L 374 200 L 152 200 Z M 152 10 " clip-rule="nonzero"/></clipPath><clipPath id="30f6399cb6"><path d="M 138.953125 44.132812 L 286.695312 -56.039062 L 411.699219 128.328125 L 263.957031 228.5 Z M 138.953125 44.132812 " clip-rule="nonzero"/></clipPath><clipPath id="4ab83291b0"><path d="M 138.953125 44.132812 L 286.695312 -56.039062 L 411.699219 128.328125 L 263.957031 228.5 Z M 138.953125 44.132812 " clip-rule="nonzero"/></clipPath><clipPath id="f9e72164d2"><path d="M 138.953125 44.132812 L 286.695312 -56.039062 L 411.699219 128.328125 L 263.957031 228.5 Z M 138.953125 44.132812 " clip-rule="nonzero"/></clipPath></defs><g clip-path="url(#9e32f54b4f)"><g clip-path="url(#ad12707bef)"><g clip-path="url(#523b43be8b)"><g clip-path="url(#a54570d167)"><path fill="#ffffff" d="M 366.601562 67.589844 C 366.902344 68.039062 367.140625 68.472656 367.292969 68.960938 C 373.820312 87.339844 369.988281 107.59375 356.84375 124.800781 C 357.050781 124.839844 357.253906 124.878906 357.417969 124.945312 C 361.472656 126.105469 364.839844 128.976562 366.679688 132.824219 C 369.070312 137.839844 368.539062 143.53125 365.289062 148.105469 C 358.277344 157.894531 347.292969 168.125 334.402344 176.863281 C 321.273438 185.769531 307.023438 192.585938 294.316406 195.988281 C 289.054688 197.421875 283.476562 195.753906 279.796875 191.730469 C 277.039062 188.625 275.773438 184.746094 276.234375 180.699219 C 276.335938 179.800781 276.644531 178.941406 277.117188 178.148438 C 257.765625 176.21875 236.765625 158.113281 223.25 131.789062 C 221.277344 127.914062 218.789062 124.507812 215.894531 121.550781 C 207.636719 113.226562 198.855469 105.613281 190.390625 98.203125 L 190.238281 98.070312 C 181.882812 90.820312 174.019531 83.949219 167.886719 77.441406 C 159.242188 68.371094 154.703125 57.472656 155.339844 47.558594 C 155.695312 41.867188 158.464844 37.027344 163.101562 33.886719 C 164.847656 32.699219 166.855469 31.8125 168.867188 31.277344 C 174.714844 29.742188 183.378906 30.796875 188.652344 38.835938 C 196.152344 50.335938 203.726562 60.367188 211.851562 69.550781 C 213.554688 65.496094 216.414062 62.015625 220.035156 59.5625 C 222.433594 57.933594 225.132812 56.753906 228.003906 56.171875 C 229.253906 55.917969 230.601562 55.714844 232.070312 55.605469 C 233.253906 55.515625 234.371094 55.765625 235.371094 56.273438 C 235.714844 47.152344 240.242188 38.691406 247.585938 33.59375 L 247.914062 33.371094 C 252.792969 30.0625 258.402344 28.449219 264.125 28.660156 C 265.59375 28.730469 267 29.316406 268.113281 30.339844 C 268.898438 28.089844 270.015625 25.96875 271.445312 24.050781 C 273.183594 21.628906 275.320312 19.527344 277.800781 17.847656 C 281.132812 15.585938 284.910156 14.152344 289.003906 13.625 C 296.363281 12.664062 303.867188 14.804688 309.632812 19.546875 C 317.605469 26.046875 324.558594 36.914062 330.328125 51.902344 C 330.632812 52.703125 330.789062 53.542969 330.738281 54.347656 C 336.074219 52.152344 341.953125 51.71875 347.464844 53.195312 C 355.0625 55.210938 361.550781 60.054688 366.601562 67.589844 Z M 366.601562 67.589844 " fill-opacity="1" fill-rule="nonzero"/></g></g></g></g><g clip-path="url(#e5446764b2)"><g clip-path="url(#30f6399cb6)"><g clip-path="url(#4ab83291b0)"><g clip-path="url(#f9e72164d2)"><path fill="#000000" d="M 348.152344 50.183594 C 343.144531 48.839844 337.890625 48.964844 332.929688 50.316406 C 326.925781 34.894531 319.878906 23.972656 311.480469 17.105469 C 305.074219 11.855469 296.695312 9.476562 288.507812 10.527344 C 280.492188 11.578125 273.511719 15.71875 268.832031 22.210938 C 268.007812 23.359375 267.253906 24.523438 266.621094 25.78125 C 259.265625 24.90625 251.949219 26.722656 245.746094 31.050781 C 238.480469 36.09375 233.867188 43.902344 232.539062 52.445312 C 230.714844 52.558594 228.945312 52.75 227.285156 53.105469 C 220.433594 54.550781 214.769531 58.628906 211.171875 64.085938 C 204.324219 55.996094 197.722656 47.140625 191.171875 37.128906 C 186.132812 29.347656 177.015625 25.875 168.042969 28.222656 C 159.0625 30.640625 152.847656 38.109375 152.234375 47.355469 C 151.503906 58.097656 156.382812 69.839844 165.601562 79.585938 C 171.882812 86.226562 179.84375 93.152344 188.308594 100.5625 C 196.75 107.933594 205.503906 115.503906 213.664062 123.777344 C 216.324219 126.472656 218.605469 129.664062 220.496094 133.242188 C 227.179688 146.246094 235.960938 157.710938 245.933594 166.292969 C 254.863281 174.039062 264.171875 178.925781 273.15625 180.714844 C 272.742188 185.4375 274.230469 190.175781 277.550781 193.847656 C 281.972656 198.789062 288.726562 200.785156 295.140625 199.042969 C 308.488281 195.445312 323.046875 188.296875 336.097656 179.449219 C 348.984375 170.710938 360.429688 160.285156 367.832031 149.933594 C 371.742188 144.496094 372.363281 137.621094 369.5 131.5625 C 367.800781 127.917969 364.988281 125.082031 361.613281 123.34375 C 363.488281 120.59375 365.128906 117.761719 366.605469 114.863281 C 374.339844 99.3125 375.570312 82.480469 370.03125 67.398438 L 369.878906 66.910156 L 369.574219 66.464844 C 363.972656 57.9375 356.757812 52.464844 348.152344 50.183594 Z M 273.738281 32.507812 C 274.351562 30.789062 275.199219 29.148438 276.304688 27.628906 C 279.445312 23.25 284.191406 20.445312 289.660156 19.757812 C 295.320312 19 301.144531 20.679688 305.570312 24.316406 C 312.71875 30.132812 319.050781 40.175781 324.417969 54.128906 C 324.257812 54.242188 324.054688 54.378906 323.890625 54.488281 C 321.855469 51.839844 319.648438 49.542969 317.496094 47.332031 C 313.75 43.472656 310.171875 39.855469 308.007812 34.390625 C 307.050781 32.019531 304.375 30.871094 302 31.832031 C 299.625 32.789062 298.472656 35.464844 299.425781 37.839844 C 302.28125 45.027344 306.824219 49.710938 310.867188 53.839844 C 312.84375 55.875 314.765625 57.832031 316.398438 59.980469 C 310.464844 64.007812 304.210938 67.300781 297.757812 69.777344 C 294.132812 71.167969 290.988281 73.183594 288.515625 75.75 C 279.972656 67.085938 274.839844 55.753906 272.914062 41.363281 C 272.523438 38.25 272.800781 35.15625 273.738281 32.507812 Z M 241.910156 62.503906 C 241.527344 60.804688 241.367188 59.078125 241.367188 57.417969 C 241.382812 57.351562 241.367188 57.242188 241.378906 57.171875 C 241.464844 49.769531 244.957031 42.839844 251 38.625 C 254.914062 35.910156 259.222656 34.648438 263.757812 34.773438 C 263.449219 37.292969 263.441406 39.90625 263.785156 42.515625 C 266.054688 59.519531 272.660156 73.285156 283.339844 83.523438 C 282.082031 86.390625 281.285156 89.417969 281.023438 92.617188 C 280.746094 96.0625 281.097656 99.382812 282.015625 102.488281 C 277.242188 106.910156 273.863281 106.65625 271.664062 105.953125 C 270.234375 105.503906 268.742188 104.617188 267.46875 103.347656 C 253.097656 89.160156 244.753906 75.800781 241.910156 62.503906 Z M 216.242188 80.320312 C 216.023438 78.15625 216.171875 76.101562 216.691406 74.152344 C 216.769531 73.917969 216.851562 73.6875 216.890625 73.480469 C 218.609375 67.875 223.207031 63.453125 229.175781 62.191406 C 230.207031 61.964844 231.296875 61.820312 232.441406 61.753906 C 232.554688 62.625 232.699219 63.535156 232.90625 64.457031 C 236.105469 79.589844 245.292969 94.449219 260.964844 109.949219 C 262.007812 110.960938 263.046875 111.796875 264.167969 112.578125 C 261.574219 117.238281 258.207031 120.410156 253.984375 122.324219 C 250.222656 124.046875 245.660156 123.527344 242.140625 121.054688 C 226.40625 109.746094 217.910156 96.429688 216.242188 80.320312 Z M 350.960938 122.332031 C 350.5 122.703125 350.121094 123.199219 349.8125 123.703125 C 343.410156 131.242188 335.097656 137.886719 325.152344 142.914062 C 322.84375 144.0625 321.953125 146.859375 323.070312 149.121094 C 324.21875 151.425781 327.015625 152.3125 329.292969 151.121094 C 332.78125 149.351562 336.128906 147.375 339.300781 145.226562 C 345.441406 141.0625 350.976562 136.183594 355.691406 130.796875 C 358.035156 131.457031 359.980469 133.101562 361.085938 135.429688 C 362.496094 138.386719 362.195312 141.789062 360.265625 144.460938 C 346.472656 163.765625 317.429688 183.339844 292.679688 189.988281 C 289.621094 190.816406 286.511719 189.90625 284.355469 187.515625 C 282.75 185.761719 282.082031 183.546875 282.339844 181.300781 C 288.4375 181.015625 294.113281 179.0625 299.195312 175.617188 C 303.222656 172.886719 306.859375 169.238281 310.082031 164.625 C 311.578125 162.542969 311.039062 159.648438 308.960938 158.15625 C 306.878906 156.664062 303.984375 157.207031 302.488281 159.285156 C 296.070312 168.378906 288.066406 172.679688 278.652344 172.011719 C 261.390625 170.800781 241.292969 153.5 228.691406 128.871094 C 226.398438 124.441406 223.59375 120.480469 220.246094 117.121094 C 211.8125 108.621094 202.976562 100.925781 194.386719 93.421875 C 186.097656 86.183594 178.289062 79.394531 172.335938 73.0625 C 164.871094 65.207031 160.886719 56.003906 161.441406 47.808594 C 161.847656 41.488281 166.34375 38.144531 170.367188 37.074219 C 174.390625 36.007812 179.964844 36.789062 183.40625 42.039062 C 191.152344 53.90625 198.976562 64.300781 207.277344 73.660156 C 206.847656 76.085938 206.753906 78.578125 207.03125 81.171875 C 208.988281 99.8125 219 115.714844 236.734375 128.394531 C 242.917969 132.789062 250.988281 133.660156 257.757812 130.605469 C 259.308594 129.914062 260.773438 129.097656 262.152344 128.160156 C 266.585938 125.15625 270.230469 120.90625 273.011719 115.464844 C 276.988281 115.730469 280.957031 114.582031 284.78125 111.992188 C 285.226562 111.6875 285.648438 111.34375 286.132812 111.011719 C 290.054688 116.53125 296.03125 120.535156 303.066406 121.808594 C 321.089844 125.109375 335.929688 109.183594 345.5 96.949219 C 347.089844 94.921875 346.730469 92.023438 344.730469 90.476562 C 342.703125 88.890625 339.808594 89.253906 338.253906 91.253906 C 325.367188 107.695312 314.683594 114.523438 304.746094 112.730469 C 298.800781 111.664062 294.074219 107.582031 291.75 102.226562 C 291.695312 101.96875 291.597656 101.738281 291.433594 101.496094 C 290.476562 98.945312 289.992188 96.132812 290.269531 93.21875 C 290.558594 89.351562 291.964844 85.910156 294.625 82.746094 C 296.230469 80.824219 298.4375 79.269531 301.140625 78.265625 C 310.484375 74.714844 319.460938 69.578125 327.722656 63.027344 C 332.894531 58.929688 339.679688 57.46875 345.804688 59.0625 C 352.09375 60.722656 357.238281 64.636719 361.53125 70.96875 C 367.578125 88.199219 363.203125 107.042969 350.960938 122.332031 Z M 309.425781 146.941406 C 309.121094 147.976562 308.457031 148.839844 307.605469 149.417969 C 306.507812 150.164062 305.039062 150.449219 303.675781 150.011719 C 294.285156 147.191406 286.878906 139.417969 283.359375 128.710938 C 282.550781 126.296875 283.867188 123.6875 286.285156 122.878906 C 288.703125 122.066406 291.3125 123.378906 292.121094 125.792969 C 293.636719 130.394531 297.480469 138.511719 306.335938 141.15625 C 308.765625 141.9375 310.144531 144.496094 309.425781 146.941406 Z M 309.425781 146.941406 " fill-opacity="1" fill-rule="nonzero"/></g></g></g></g></svg>