<svg xmlns="http://www.w3.org/2000/svg" xmlns:xlink="http://www.w3.org/1999/xlink" width="500" zoomAndPan="magnify" viewBox="0 0 375 225" height="300" preserveAspectRatio="xMidYMid meet" version="1.0"><defs><clipPath id="267d16a105"><path d="M 4 28 L 216 28 L 216 211 L 4 211 Z M 4 28 " clip-rule="nonzero"/></clipPath><clipPath id="63041f907c"><path d="M 73.132812 -40.882812 L 230.90625 42.605469 L 126.71875 239.488281 L -31.050781 156 Z M 73.132812 -40.882812 " clip-rule="nonzero"/></clipPath><clipPath id="54d617c736"><path d="M 230.65625 42.472656 L 72.882812 -41.011719 L -31.300781 155.871094 L 126.472656 239.359375 Z M 230.65625 42.472656 " clip-rule="nonzero"/></clipPath><clipPath id="99b7d53d06"><path d="M 230.65625 42.472656 L 72.882812 -41.011719 L -31.300781 155.871094 L 126.472656 239.359375 Z M 230.65625 42.472656 " clip-rule="nonzero"/></clipPath><clipPath id="cd9defc08f"><path d="M 1 25 L 219 25 L 219 214 L 1 214 Z M 1 25 " clip-rule="nonzero"/></clipPath><clipPath id="8ab048f576"><path d="M 73.132812 -40.882812 L 230.90625 42.605469 L 126.71875 239.488281 L -31.050781 156 Z M 73.132812 -40.882812 " clip-rule="nonzero"/></clipPath><clipPath id="2d956e6008"><path d="M 230.65625 42.472656 L 72.882812 -41.011719 L -31.300781 155.871094 L 126.472656 239.359375 Z M 230.65625 42.472656 " clip-rule="nonzero"/></clipPath><clipPath id="2788633e50"><path d="M 230.65625 42.472656 L 72.882812 -41.011719 L -31.300781 155.871094 L 126.472656 239.359375 Z M 230.65625 42.472656 " clip-rule="nonzero"/></clipPath></defs><g clip-path="url(#267d16a105)"><g clip-path="url(#63041f907c)"><g clip-path="url(#54d617c736)"><g clip-path="url(#99b7d53d06)"><path fill="#ffffff" d="M 6.914062 90.582031 C 6.664062 91.058594 6.476562 91.515625 6.378906 92.019531 C 1.890625 111.003906 7.90625 130.71875 22.84375 146.386719 C 22.644531 146.449219 22.445312 146.511719 22.289062 146.59375 C 18.386719 148.191406 15.351562 151.410156 13.941406 155.4375 C 12.113281 160.679688 13.261719 166.28125 16.988281 170.472656 C 25.023438 179.441406 37.058594 188.417969 50.820312 195.699219 C 64.84375 203.121094 79.75 208.347656 92.753906 210.34375 C 98.136719 211.195312 103.503906 208.933594 106.722656 204.53125 C 109.125 201.144531 109.960938 197.148438 109.0625 193.179688 C 108.863281 192.296875 108.464844 191.472656 107.910156 190.738281 C 126.933594 186.710938 145.835938 166.425781 156.40625 138.789062 C 157.945312 134.722656 160.046875 131.0625 162.601562 127.808594 C 169.902344 118.636719 177.804688 110.113281 185.414062 101.824219 L 185.546875 101.671875 C 193.066406 93.558594 200.132812 85.871094 205.523438 78.734375 C 213.125 68.777344 216.453125 57.445312 214.738281 47.664062 C 213.765625 42.046875 210.484375 37.535156 205.535156 34.917969 C 203.667969 33.929688 201.574219 33.265625 199.515625 32.953125 C 193.539062 32.0625 185.039062 34.054688 180.675781 42.621094 C 174.46875 54.871094 168.035156 65.667969 160.957031 75.679688 C 158.824219 71.832031 155.601562 68.683594 151.738281 66.640625 C 149.175781 65.285156 146.363281 64.40625 143.445312 64.136719 C 142.175781 64.019531 140.816406 63.964844 139.34375 64.019531 C 138.15625 64.058594 137.070312 64.425781 136.132812 65.039062 C 134.796875 56.011719 129.375 48.09375 121.519531 43.824219 L 121.171875 43.640625 C 115.960938 40.886719 110.207031 39.890625 104.542969 40.722656 C 103.089844 40.953125 101.753906 41.6875 100.761719 42.828125 C 99.734375 40.675781 98.394531 38.691406 96.765625 36.941406 C 94.773438 34.71875 92.417969 32.863281 89.769531 31.464844 C 86.210938 29.578125 82.300781 28.566406 78.175781 28.488281 C 70.753906 28.335938 63.527344 31.277344 58.3125 36.617188 C 51.097656 43.953125 45.371094 55.511719 41.265625 71.035156 C 41.050781 71.867188 40.988281 72.71875 41.121094 73.511719 C 35.578125 71.910156 29.6875 72.121094 24.371094 74.191406 C 17.035156 77.023438 11.113281 82.542969 6.914062 90.582031 Z M 6.914062 90.582031 " fill-opacity="1" fill-rule="nonzero"/></g></g></g></g><g clip-path="url(#cd9defc08f)"><g clip-path="url(#8ab048f576)"><g clip-path="url(#2d956e6008)"><g clip-path="url(#2788633e50)"><path fill="#000000" d="M 23.359375 71.269531 C 28.191406 69.386719 33.425781 68.941406 38.503906 69.742188 C 42.792969 53.761719 48.613281 42.136719 56.210938 34.394531 C 62.007812 28.476562 70.078125 25.203125 78.332031 25.355469 C 86.410156 25.523438 93.804688 28.882812 99.164062 34.824219 C 100.105469 35.878906 100.980469 36.953125 101.746094 38.132812 C 108.964844 36.460938 116.433594 37.472656 123.074219 41.097656 C 130.84375 45.320312 136.28125 52.582031 138.53125 60.929688 C 140.359375 60.839844 142.136719 60.839844 143.824219 61.011719 C 150.792969 61.703125 156.867188 65.136719 161.039062 70.175781 C 166.964844 61.382812 172.5625 51.863281 177.984375 41.195312 C 182.144531 32.914062 190.832031 28.464844 200.003906 29.824219 C 209.199219 31.25 216.183594 38 217.804688 47.121094 C 219.699219 57.722656 216.128906 69.925781 208.027344 80.617188 C 202.503906 87.902344 195.347656 95.652344 187.738281 103.941406 C 180.152344 112.1875 172.273438 120.667969 165.0625 129.777344 C 162.710938 132.75 160.789062 136.171875 159.300781 139.933594 C 154.074219 153.585938 146.59375 165.9375 137.617188 175.554688 C 129.582031 184.230469 120.859375 190.101562 112.121094 192.855469 C 113.050781 197.507812 112.085938 202.378906 109.183594 206.390625 C 105.328125 211.785156 98.832031 214.503906 92.265625 213.472656 C 78.609375 211.347656 63.355469 205.828125 49.421875 198.453125 C 35.65625 191.171875 23.144531 182.050781 14.65625 172.570312 C 10.179688 167.589844 8.8125 160.824219 11 154.488281 C 12.292969 150.679688 14.777344 147.558594 17.945312 145.460938 C 15.78125 142.929688 13.84375 140.292969 12.058594 137.574219 C 2.675781 122.957031 -0.378906 106.363281 3.484375 90.765625 L 3.582031 90.261719 L 3.835938 89.785156 C 8.476562 80.703125 15.050781 74.472656 23.359375 71.269531 Z M 95.40625 45.597656 C 94.609375 43.953125 93.589844 42.414062 92.324219 41.023438 C 88.722656 37.011719 83.703125 34.742188 78.191406 34.65625 C 72.480469 34.519531 66.875 36.820312 62.871094 40.917969 C 56.398438 47.480469 51.195312 58.152344 47.382812 72.609375 C 47.554688 72.699219 47.773438 72.816406 47.945312 72.90625 C 49.679688 70.050781 51.625 67.53125 53.523438 65.097656 C 56.824219 60.851562 59.988281 56.867188 61.542969 51.199219 C 62.234375 48.738281 64.773438 47.304688 67.238281 48 C 69.703125 48.695312 71.140625 51.230469 70.449219 53.691406 C 68.394531 61.148438 64.390625 66.296875 60.820312 70.84375 C 59.078125 73.082031 57.382812 75.238281 55.992188 77.550781 C 62.328125 80.90625 68.90625 83.5 75.585938 85.257812 C 79.34375 86.246094 82.6875 87.90625 85.425781 90.1875 C 92.976562 80.648438 96.84375 68.824219 97.1875 54.304688 C 97.238281 51.167969 96.625 48.128906 95.40625 45.597656 Z M 130.3125 71.945312 C 130.503906 70.214844 130.476562 68.480469 130.296875 66.832031 C 130.273438 66.765625 130.277344 66.65625 130.257812 66.589844 C 129.367188 59.238281 125.140625 52.734375 118.675781 49.199219 C 114.488281 46.929688 110.066406 46.144531 105.574219 46.761719 C 106.15625 49.230469 106.449219 51.828125 106.390625 54.460938 C 105.984375 71.609375 100.917969 86.015625 91.414062 97.351562 C 92.980469 100.066406 94.101562 102.988281 94.710938 106.140625 C 95.359375 109.535156 95.375 112.871094 94.796875 116.0625 C 100.027344 119.9375 103.355469 119.316406 105.464844 118.378906 C 106.839844 117.773438 108.226562 116.730469 109.355469 115.332031 C 122.09375 99.660156 128.933594 85.472656 130.3125 71.945312 Z M 157.765625 86.859375 C 157.746094 84.6875 157.375 82.660156 156.648438 80.777344 C 156.542969 80.554688 156.4375 80.332031 156.378906 80.136719 C 154.058594 74.746094 149.007812 70.855469 142.9375 70.25 C 141.882812 70.136719 140.785156 70.109375 139.644531 70.171875 C 139.625 71.046875 139.582031 71.96875 139.472656 72.910156 C 137.941406 88.296875 130.429688 104.070312 116.539062 121.1875 C 115.613281 122.304688 114.667969 123.25 113.636719 124.144531 C 116.726562 128.496094 120.417969 131.285156 124.824219 132.726562 C 128.75 134.027344 133.230469 133.015625 136.457031 130.171875 C 150.871094 117.21875 157.863281 103.054688 157.765625 86.859375 Z M 28.425781 143.296875 C 28.921875 143.613281 29.351562 144.0625 29.714844 144.53125 C 36.898438 151.332031 45.886719 157.03125 56.320312 160.941406 C 58.738281 161.832031 59.929688 164.515625 59.066406 166.886719 C 58.175781 169.300781 55.492188 170.488281 53.097656 169.554688 C 49.4375 168.171875 45.894531 166.574219 42.507812 164.78125 C 35.953125 161.3125 29.917969 157.066406 24.644531 152.222656 C 22.386719 153.136719 20.628906 154.980469 19.785156 157.417969 C 18.707031 160.507812 19.378906 163.859375 21.585938 166.304688 C 37.398438 183.992188 68.402344 200.285156 93.726562 204.203125 C 96.855469 204.691406 99.847656 203.449219 101.730469 200.835938 C 103.136719 198.917969 103.558594 196.644531 103.058594 194.441406 C 96.96875 194.820312 91.109375 193.496094 85.683594 190.625 C 81.386719 188.351562 77.371094 185.117188 73.667969 180.882812 C 71.953125 178.976562 72.171875 176.042969 74.078125 174.332031 C 75.980469 172.621094 78.921875 172.84375 80.636719 174.75 C 88.003906 183.089844 96.429688 186.492188 105.714844 184.804688 C 122.738281 181.71875 140.832031 162.335938 150.679688 136.480469 C 152.476562 131.828125 154.832031 127.582031 157.792969 123.878906 C 165.25 114.511719 173.195312 105.898438 180.917969 97.503906 C 188.371094 89.410156 195.394531 81.808594 200.621094 74.867188 C 207.183594 66.246094 210.144531 56.660156 208.699219 48.574219 C 207.609375 42.339844 202.773438 39.503906 198.660156 38.878906 C 194.542969 38.253906 189.089844 39.636719 186.238281 45.230469 C 179.828125 57.871094 173.1875 69.058594 165.953125 79.265625 C 166.644531 81.628906 167.007812 84.09375 167.015625 86.707031 C 167.101562 105.449219 158.882812 122.347656 142.632812 136.882812 C 136.960938 141.925781 129.039062 143.667969 121.972656 141.371094 C 120.359375 140.851562 118.8125 140.199219 117.335938 139.417969 C 112.605469 136.914062 108.519531 133.085938 105.160156 127.980469 C 101.234375 128.679688 97.167969 127.96875 93.085938 125.808594 C 92.609375 125.554688 92.152344 125.257812 91.632812 124.984375 C 88.335938 130.894531 82.832031 135.527344 75.976562 137.558594 C 58.417969 142.800781 41.933594 128.585938 31.089844 117.464844 C 29.285156 115.625 29.328125 112.707031 31.148438 110.949219 C 32.988281 109.152344 35.910156 109.199219 37.671875 111.019531 C 52.273438 125.957031 63.632812 131.582031 73.316406 128.71875 C 79.109375 127.011719 83.363281 122.4375 85.09375 116.863281 C 85.121094 116.601562 85.191406 116.359375 85.328125 116.101562 C 86.003906 113.460938 86.175781 110.613281 85.582031 107.746094 C 84.878906 103.933594 83.105469 100.664062 80.117188 97.808594 C 78.308594 96.074219 75.945312 94.769531 73.148438 94.066406 C 63.476562 91.554688 53.992188 87.421875 45.066406 81.8125 C 39.476562 78.300781 32.574219 77.589844 26.660156 79.839844 C 20.589844 82.175781 15.898438 86.628906 12.320312 93.386719 C 8.191406 111.171875 14.589844 129.429688 28.425781 143.296875 Z M 72.390625 163.234375 C 72.808594 164.230469 73.558594 165.015625 74.472656 165.5 C 75.644531 166.117188 77.136719 166.242188 78.445312 165.660156 C 87.46875 161.835938 93.984375 153.300781 96.320312 142.277344 C 96.859375 139.785156 95.265625 137.335938 92.773438 136.792969 C 90.28125 136.25 87.832031 137.839844 87.292969 140.328125 C 86.285156 145.066406 83.351562 153.554688 74.835938 157.148438 C 72.503906 158.1875 71.414062 160.882812 72.390625 163.234375 Z M 72.390625 163.234375 " fill-opacity="1" fill-rule="nonzero"/></g></g></g></g></svg>