<svg xmlns="http://www.w3.org/2000/svg" xmlns:xlink="http://www.w3.org/1999/xlink" width="500" zoomAndPan="magnify" viewBox="0 0 375 225" height="300" preserveAspectRatio="xMidYMid meet" version="1.0"><defs><clipPath id="67917c0009"><path d="M 5 28 L 216 28 L 216 211 L 5 211 Z M 5 28 " clip-rule="nonzero"/></clipPath><clipPath id="b0c2504af4"><path d="M 73.132812 -40.882812 L 230.664062 42.476562 L 126.464844 239.390625 L -31.066406 156.03125 Z M 73.132812 -40.882812 " clip-rule="nonzero"/></clipPath><clipPath id="2ba4b314ca"><path d="M 230.664062 42.476562 L 73.132812 -40.882812 L -31.066406 156.03125 L 126.464844 239.390625 Z M 230.664062 42.476562 " clip-rule="nonzero"/></clipPath><clipPath id="c5633c211e"><path d="M 230.664062 42.476562 L 73.132812 -40.882812 L -31.066406 156.03125 L 126.464844 239.390625 Z M 230.664062 42.476562 " clip-rule="nonzero"/></clipPath><clipPath id="4f33b654f8"><path d="M 2 25 L 219 25 L 219 214 L 2 214 Z M 2 25 " clip-rule="nonzero"/></clipPath><clipPath id="c8f19365c6"><path d="M 73.132812 -40.882812 L 230.664062 42.476562 L 126.464844 239.390625 L -31.066406 156.03125 Z M 73.132812 -40.882812 " clip-rule="nonzero"/></clipPath><clipPath id="87714116f5"><path d="M 230.664062 42.476562 L 73.132812 -40.882812 L -31.066406 156.03125 L 126.464844 239.390625 Z M 230.664062 42.476562 " clip-rule="nonzero"/></clipPath><clipPath id="23f3cb8a15"><path d="M 230.664062 42.476562 L 73.132812 -40.882812 L -31.066406 156.03125 L 126.464844 239.390625 Z M 230.664062 42.476562 " clip-rule="nonzero"/></clipPath><clipPath id="32b13f8029"><path d="M 155 13 L 371 13 L 371 197 L 155 197 Z M 155 13 " clip-rule="nonzero"/></clipPath><clipPath id="b4d499459c"><path d="M 138.953125 44.136719 L 286.46875 -55.882812 L 411.496094 128.511719 L 263.980469 228.535156 Z M 138.953125 44.136719 " clip-rule="nonzero"/></clipPath><clipPath id="5c963ac0b4"><path d="M 138.953125 44.136719 L 286.46875 -55.882812 L 411.496094 128.511719 L 263.980469 228.535156 Z M 138.953125 44.136719 " clip-rule="nonzero"/></clipPath><clipPath id="4a2ea4a1b8"><path d="M 138.953125 44.136719 L 286.46875 -55.882812 L 411.496094 128.511719 L 263.980469 228.535156 Z M 138.953125 44.136719 " clip-rule="nonzero"/></clipPath><clipPath id="5d9b0258f1"><path d="M 152 10 L 374 10 L 374 200 L 152 200 Z M 152 10 " clip-rule="nonzero"/></clipPath><clipPath id="3e60d012e7"><path d="M 138.953125 44.136719 L 286.46875 -55.882812 L 411.496094 128.511719 L 263.980469 228.535156 Z M 138.953125 44.136719 " clip-rule="nonzero"/></clipPath><clipPath id="0802d2eee7"><path d="M 138.953125 44.136719 L 286.46875 -55.882812 L 411.496094 128.511719 L 263.980469 228.535156 Z M 138.953125 44.136719 " clip-rule="nonzero"/></clipPath><clipPath id="b326f23805"><path d="M 138.953125 44.136719 L 286.46875 -55.882812 L 411.496094 128.511719 L 263.980469 228.535156 Z M 138.953125 44.136719 " clip-rule="nonzero"/></clipPath></defs><g clip-path="url(#67917c0009)"><g clip-path="url(#b0c2504af4)"><g clip-path="url(#2ba4b314ca)"><g clip-path="url(#c5633c211e)"><path fill="#ffffff" d="M 7.148438 90.734375 C 6.894531 91.210938 6.710938 91.667969 6.609375 92.167969 C 2.113281 111.152344 8.109375 130.859375 23.019531 146.515625 C 22.820312 146.578125 22.621094 146.640625 22.464844 146.722656 C 18.566406 148.324219 15.53125 151.542969 14.121094 155.570312 C 12.289062 160.816406 13.433594 166.414062 17.152344 170.601562 C 25.175781 179.5625 37.1875 188.527344 50.929688 195.800781 C 64.929688 203.210938 79.816406 208.425781 92.804688 210.414062 C 98.179688 211.261719 103.542969 208.992188 106.757812 204.589844 C 109.164062 201.203125 110 197.207031 109.105469 193.238281 C 108.90625 192.355469 108.507812 191.535156 107.957031 190.796875 C 126.960938 186.761719 145.855469 166.464844 156.433594 138.824219 C 157.976562 134.753906 160.078125 131.097656 162.632812 127.84375 C 169.929688 118.664062 177.828125 110.136719 185.433594 101.84375 L 185.570312 101.691406 C 193.085938 93.574219 200.152344 85.882812 205.535156 78.746094 C 213.136719 68.785156 216.472656 57.453125 214.765625 47.671875 C 213.796875 42.054688 210.523438 37.546875 205.582031 34.933594 C 203.71875 33.945312 201.628906 33.285156 199.570312 32.972656 C 193.601562 32.089844 185.109375 34.085938 180.746094 42.652344 C 174.539062 54.90625 168.101562 65.703125 161.027344 75.722656 C 158.898438 71.875 155.679688 68.730469 151.824219 66.6875 C 149.265625 65.335938 146.453125 64.460938 143.542969 64.195312 C 142.273438 64.078125 140.914062 64.023438 139.441406 64.078125 C 138.257812 64.117188 137.171875 64.488281 136.238281 65.101562 C 134.910156 56.074219 129.5 48.164062 121.65625 43.902344 L 121.308594 43.71875 C 116.105469 40.964844 110.359375 39.976562 104.699219 40.8125 C 103.246094 41.039062 101.914062 41.777344 100.921875 42.917969 C 99.898438 40.765625 98.5625 38.78125 96.933594 37.035156 C 94.945312 34.816406 92.597656 32.960938 89.953125 31.5625 C 86.398438 29.683594 82.492188 28.671875 78.371094 28.597656 C 70.957031 28.449219 63.738281 31.398438 58.523438 36.742188 C 51.3125 44.078125 45.582031 55.640625 41.472656 71.164062 C 41.257812 71.992188 41.195312 72.847656 41.328125 73.640625 C 35.792969 72.042969 29.910156 72.257812 24.59375 74.328125 C 17.269531 77.167969 11.347656 82.691406 7.148438 90.734375 Z M 7.148438 90.734375 " fill-opacity="1" fill-rule="nonzero"/></g></g></g></g><g clip-path="url(#4f33b654f8)"><g clip-path="url(#c8f19365c6)"><g clip-path="url(#87714116f5)"><g clip-path="url(#23f3cb8a15)"><path fill="#000000" d="M 23.585938 71.410156 C 28.414062 69.523438 33.644531 69.074219 38.71875 69.871094 C 43.011719 53.890625 48.832031 42.265625 56.425781 34.519531 C 62.222656 28.597656 70.285156 25.316406 78.53125 25.464844 C 86.601562 25.628906 93.980469 28.980469 99.332031 34.917969 C 100.269531 35.96875 101.144531 37.042969 101.910156 38.222656 C 109.121094 36.546875 116.578125 37.554688 123.210938 41.171875 C 130.964844 45.386719 136.394531 52.644531 138.636719 60.988281 C 140.460938 60.898438 142.238281 60.894531 143.921875 61.066406 C 150.882812 61.753906 156.945312 65.183594 161.109375 70.214844 C 167.039062 61.421875 172.632812 51.898438 178.054688 41.230469 C 182.21875 32.945312 190.898438 28.496094 200.0625 29.847656 C 209.242188 31.265625 216.21875 38.007812 217.828125 47.128906 C 219.710938 57.722656 216.140625 69.929688 208.039062 80.621094 C 202.515625 87.910156 195.363281 95.667969 187.753906 103.960938 C 180.171875 112.210938 172.296875 120.695312 165.085938 129.808594 C 162.738281 132.78125 160.816406 136.203125 159.324219 139.964844 C 154.09375 153.621094 146.613281 165.976562 137.636719 175.597656 C 129.605469 184.277344 120.890625 190.152344 112.164062 192.914062 C 113.085938 197.5625 112.117188 202.433594 109.21875 206.449219 C 105.363281 211.84375 98.871094 214.566406 92.3125 213.539062 C 78.671875 211.425781 63.441406 205.917969 49.527344 198.554688 C 35.785156 191.28125 23.292969 182.175781 14.824219 172.699219 C 10.351562 167.726562 8.996094 160.960938 11.179688 154.625 C 12.476562 150.816406 14.960938 147.691406 18.125 145.59375 C 15.96875 143.0625 14.03125 140.429688 12.25 137.710938 C 2.890625 123.105469 -0.148438 106.515625 3.722656 90.917969 L 3.820312 90.414062 L 4.074219 89.9375 C 8.714844 80.851562 15.285156 74.621094 23.585938 71.410156 Z M 95.570312 45.691406 C 94.777344 44.046875 93.757812 42.511719 92.496094 41.121094 C 88.902344 37.113281 83.886719 34.847656 78.382812 34.761719 C 72.679688 34.632812 67.078125 36.9375 63.078125 41.035156 C 56.605469 47.601562 51.402344 58.273438 47.582031 72.730469 C 47.753906 72.824219 47.972656 72.9375 48.144531 73.03125 C 49.878906 70.175781 51.824219 67.652344 53.722656 65.214844 C 57.023438 60.96875 60.1875 56.984375 61.742188 51.316406 C 62.4375 48.851562 64.96875 47.417969 67.433594 48.113281 C 69.894531 48.804688 71.328125 51.339844 70.636719 53.804688 C 68.578125 61.257812 64.574219 66.410156 61.003906 70.957031 C 59.265625 73.199219 57.570312 75.351562 56.175781 77.667969 C 62.507812 81.019531 69.070312 83.605469 75.746094 85.359375 C 79.496094 86.347656 82.835938 88.003906 85.570312 90.28125 C 93.117188 80.738281 96.988281 68.914062 97.34375 54.398438 C 97.394531 51.261719 96.785156 48.21875 95.570312 45.691406 Z M 130.417969 72.007812 C 130.613281 70.28125 130.585938 68.546875 130.40625 66.898438 C 130.382812 66.832031 130.386719 66.722656 130.367188 66.65625 C 129.484375 59.308594 125.265625 52.804688 118.808594 49.277344 C 114.628906 47.007812 110.214844 46.226562 105.726562 46.847656 C 106.304688 49.316406 106.59375 51.914062 106.535156 54.542969 C 106.117188 71.691406 101.046875 86.097656 91.546875 97.441406 C 93.109375 100.152344 94.226562 103.074219 94.832031 106.226562 C 95.480469 109.621094 95.488281 112.953125 94.910156 116.144531 C 100.132812 120.015625 103.460938 119.390625 105.566406 118.453125 C 106.9375 117.847656 108.324219 116.804688 109.453125 115.40625 C 122.1875 99.726562 129.03125 85.535156 130.417969 72.007812 Z M 157.828125 86.902344 C 157.8125 84.730469 157.441406 82.703125 156.71875 80.820312 C 156.613281 80.601562 156.507812 80.378906 156.449219 80.179688 C 154.136719 74.792969 149.09375 70.90625 143.027344 70.304688 C 141.976562 70.191406 140.882812 70.167969 139.738281 70.226562 C 139.71875 71.105469 139.675781 72.027344 139.566406 72.964844 C 138.027344 88.355469 130.511719 104.132812 116.625 121.253906 C 115.699219 122.371094 114.753906 123.316406 113.726562 124.214844 C 116.804688 128.5625 120.492188 131.347656 124.890625 132.785156 C 128.8125 134.082031 133.289062 133.066406 136.511719 130.222656 C 150.917969 117.261719 157.914062 103.09375 157.828125 86.902344 Z M 28.597656 143.421875 C 29.09375 143.738281 29.523438 144.1875 29.882812 144.65625 C 37.054688 151.449219 46.027344 157.140625 56.449219 161.042969 C 58.863281 161.933594 60.050781 164.617188 59.183594 166.988281 C 58.296875 169.402344 55.613281 170.589844 53.222656 169.65625 C 49.566406 168.28125 46.027344 166.683594 42.648438 164.894531 C 36.101562 161.429688 30.078125 157.1875 24.8125 152.351562 C 22.554688 153.265625 20.800781 155.109375 19.957031 157.546875 C 18.875 160.636719 19.542969 163.988281 21.746094 166.429688 C 37.53125 184.105469 68.484375 200.375 93.777344 204.269531 C 96.90625 204.757812 99.894531 203.511719 101.777344 200.902344 C 103.179688 198.980469 103.605469 196.707031 103.109375 194.503906 C 97.023438 194.890625 91.171875 193.570312 85.753906 190.703125 C 81.464844 188.429688 77.457031 185.203125 73.757812 180.96875 C 72.046875 179.066406 72.269531 176.128906 74.171875 174.417969 C 76.078125 172.707031 79.011719 172.929688 80.722656 174.832031 C 88.078125 183.164062 96.492188 186.5625 105.765625 184.867188 C 122.773438 181.769531 140.863281 162.378906 150.714844 136.519531 C 152.511719 131.863281 154.871094 127.621094 157.832031 123.914062 C 165.285156 114.542969 173.230469 105.929688 180.949219 97.527344 C 188.398438 89.429688 195.417969 81.824219 200.644531 74.878906 C 207.207031 66.253906 210.171875 56.671875 208.734375 48.585938 C 207.648438 42.351562 202.820312 39.519531 198.710938 38.898438 C 194.601562 38.277344 189.148438 39.664062 186.300781 45.261719 C 179.886719 57.902344 173.246094 69.09375 166.011719 79.300781 C 166.703125 81.667969 167.0625 84.132812 167.066406 86.742188 C 167.140625 105.480469 158.917969 122.382812 142.675781 136.925781 C 137.011719 141.972656 129.09375 143.71875 122.039062 141.429688 C 120.425781 140.910156 118.882812 140.261719 117.410156 139.480469 C 112.683594 136.980469 108.605469 133.15625 105.253906 128.054688 C 101.335938 128.753906 97.269531 128.046875 93.195312 125.890625 C 92.71875 125.636719 92.265625 125.339844 91.746094 125.066406 C 88.449219 130.980469 82.945312 135.613281 76.097656 137.648438 C 58.554688 142.90625 42.097656 128.703125 31.277344 117.59375 C 29.476562 115.753906 29.519531 112.835938 31.339844 111.078125 C 33.179688 109.28125 36.097656 109.324219 37.851562 111.140625 C 52.429688 126.066406 63.773438 131.683594 73.449219 128.8125 C 79.234375 127.101562 83.488281 122.527344 85.21875 116.953125 C 85.246094 116.6875 85.316406 116.449219 85.453125 116.191406 C 86.128906 113.550781 86.304688 110.703125 85.714844 107.835938 C 85.011719 104.023438 83.242188 100.757812 80.261719 97.902344 C 78.457031 96.171875 76.097656 94.867188 73.304688 94.167969 C 63.640625 91.664062 54.171875 87.539062 45.261719 81.9375 C 39.683594 78.429688 32.789062 77.722656 26.878906 79.976562 C 20.8125 82.316406 16.125 86.769531 12.546875 93.535156 C 8.40625 111.320312 14.785156 129.566406 28.597656 143.421875 Z M 72.5 163.324219 C 72.914062 164.320312 73.664062 165.105469 74.574219 165.585938 C 75.746094 166.207031 77.234375 166.328125 78.542969 165.746094 C 87.558594 161.914062 94.074219 153.378906 96.414062 142.351562 C 96.953125 139.863281 95.363281 137.414062 92.875 136.875 C 90.386719 136.332031 87.9375 137.921875 87.398438 140.410156 C 86.386719 145.148438 83.449219 153.636719 74.941406 157.238281 C 72.613281 158.28125 71.523438 160.976562 72.5 163.324219 Z M 72.5 163.324219 " fill-opacity="1" fill-rule="nonzero"/></g></g></g></g><g clip-path="url(#32b13f8029)"><g clip-path="url(#b4d499459c)"><g clip-path="url(#5c963ac0b4)"><g clip-path="url(#4a2ea4a1b8)"><path fill="#ffffff" d="M 366.394531 67.765625 C 366.699219 68.210938 366.933594 68.644531 367.085938 69.132812 C 373.625 87.515625 369.8125 107.757812 356.695312 124.945312 C 356.898438 124.984375 357.105469 125.023438 357.269531 125.089844 C 361.316406 126.257812 364.6875 129.128906 366.527344 132.976562 C 368.917969 137.992188 368.390625 143.679688 365.148438 148.25 C 358.152344 158.03125 347.1875 168.25 334.316406 176.976562 C 321.207031 185.867188 306.976562 192.671875 294.285156 196.0625 C 289.03125 197.488281 283.453125 195.820312 279.777344 191.792969 C 277.019531 188.6875 275.75 184.808594 276.207031 180.761719 C 276.308594 179.863281 276.617188 179.003906 277.085938 178.210938 C 257.753906 176.269531 236.757812 158.152344 223.234375 131.824219 C 221.261719 127.949219 218.773438 124.542969 215.878906 121.585938 C 207.625 113.257812 198.84375 105.640625 190.378906 98.226562 L 190.230469 98.089844 C 181.875 90.835938 174.011719 83.960938 167.882812 77.453125 C 159.242188 68.378906 154.695312 57.476562 155.324219 47.570312 C 155.671875 41.882812 158.4375 37.042969 163.066406 33.90625 C 164.8125 32.722656 166.816406 31.835938 168.828125 31.304688 C 174.664062 29.777344 183.324219 30.835938 188.597656 38.875 C 196.101562 50.378906 203.675781 60.414062 211.800781 69.601562 C 213.496094 65.546875 216.351562 62.070312 219.964844 59.621094 C 222.359375 57.996094 225.058594 56.820312 227.921875 56.238281 C 229.171875 55.984375 230.515625 55.78125 231.984375 55.675781 C 233.167969 55.585938 234.285156 55.835938 235.28125 56.34375 C 235.621094 47.226562 240.136719 38.773438 247.46875 33.679688 L 247.796875 33.460938 C 252.667969 30.160156 258.273438 28.550781 263.988281 28.765625 C 265.457031 28.835938 266.863281 29.421875 267.972656 30.445312 C 268.757812 28.195312 269.871094 26.078125 271.296875 24.164062 C 273.03125 21.742188 275.164062 19.644531 277.640625 17.964844 C 280.96875 15.707031 284.742188 14.277344 288.832031 13.753906 C 296.183594 12.800781 303.679688 14.945312 309.445312 19.6875 C 317.414062 26.195312 324.367188 37.066406 330.144531 52.050781 C 330.449219 52.851562 330.605469 53.695312 330.558594 54.496094 C 335.886719 52.304688 341.757812 51.878906 347.265625 53.359375 C 354.859375 55.382812 361.34375 60.226562 366.394531 67.765625 Z M 366.394531 67.765625 " fill-opacity="1" fill-rule="nonzero"/></g></g></g></g><g clip-path="url(#5d9b0258f1)"><g clip-path="url(#3e60d012e7)"><g clip-path="url(#0802d2eee7)"><g clip-path="url(#b326f23805)"><path fill="#000000" d="M 347.949219 50.347656 C 342.949219 49 337.699219 49.121094 332.742188 50.464844 C 326.730469 35.046875 319.683594 24.125 311.289062 17.253906 C 304.882812 11.996094 296.511719 9.613281 288.332031 10.660156 C 280.328125 11.699219 273.351562 15.835938 268.683594 22.320312 C 267.863281 23.46875 267.109375 24.632812 266.480469 25.886719 C 259.128906 25.007812 251.824219 26.820312 245.628906 31.136719 C 238.375 36.175781 233.769531 43.976562 232.449219 52.515625 C 230.628906 52.625 228.863281 52.816406 227.203125 53.167969 C 220.359375 54.609375 214.707031 58.679688 211.117188 64.136719 C 204.265625 56.042969 197.667969 47.183594 191.113281 37.167969 C 186.074219 29.386719 176.960938 25.90625 168 28.25 C 159.027344 30.660156 152.828125 38.121094 152.21875 47.363281 C 151.503906 58.101562 156.382812 69.84375 165.601562 79.59375 C 171.882812 86.234375 179.839844 93.164062 188.304688 100.582031 C 196.742188 107.957031 205.492188 115.53125 213.652344 123.808594 C 216.3125 126.507812 218.59375 129.699219 220.484375 133.277344 C 227.171875 146.28125 235.953125 157.75 245.925781 166.335938 C 254.855469 174.089844 264.15625 178.980469 273.132812 180.773438 C 272.722656 185.496094 274.214844 190.234375 277.535156 193.90625 C 281.953125 198.851562 288.703125 200.851562 295.109375 199.117188 C 308.441406 195.527344 322.980469 188.394531 336.011719 179.5625 C 348.878906 170.835938 360.304688 160.421875 367.691406 150.078125 C 371.59375 144.648438 372.207031 137.773438 369.34375 131.714844 C 367.644531 128.070312 364.832031 125.234375 361.460938 123.496094 C 363.328125 120.746094 364.964844 117.917969 366.441406 115.019531 C 374.152344 99.480469 375.367188 82.65625 369.824219 67.574219 L 369.667969 67.085938 L 369.367188 66.640625 C 363.761719 58.113281 356.550781 52.632812 347.949219 50.347656 Z M 273.59375 32.621094 C 274.207031 30.902344 275.050781 29.261719 276.152344 27.742188 C 279.289062 23.367188 284.027344 20.566406 289.492188 19.886719 C 295.144531 19.132812 300.964844 20.816406 305.386719 24.453125 C 312.535156 30.273438 318.871094 40.320312 324.242188 54.273438 C 324.082031 54.382812 323.878906 54.523438 323.714844 54.632812 C 321.683594 51.980469 319.472656 49.6875 317.320312 47.472656 C 313.578125 43.609375 310 39.992188 307.832031 34.527344 C 306.875 32.15625 304.203125 31.007812 301.828125 31.964844 C 299.457031 32.921875 298.304688 35.597656 299.261719 37.96875 C 302.121094 45.15625 306.660156 49.839844 310.707031 53.972656 C 312.679688 56.011719 314.601562 57.96875 316.238281 60.117188 C 310.308594 64.136719 304.066406 67.421875 297.621094 69.894531 C 294 71.285156 290.859375 73.292969 288.390625 75.855469 C 279.847656 67.191406 274.714844 55.859375 272.777344 41.46875 C 272.386719 38.355469 272.664062 35.265625 273.59375 32.621094 Z M 241.820312 62.578125 C 241.441406 60.878906 241.277344 59.152344 241.277344 57.496094 C 241.289062 57.425781 241.277344 57.316406 241.289062 57.25 C 241.367188 49.847656 244.847656 42.925781 250.882812 38.714844 C 254.792969 36.003906 259.097656 34.746094 263.625 34.875 C 263.320312 37.394531 263.3125 40.003906 263.660156 42.613281 C 265.941406 59.613281 272.550781 73.382812 283.230469 83.625 C 281.972656 86.492188 281.179688 89.515625 280.917969 92.714844 C 280.648438 96.160156 281 99.476562 281.921875 102.582031 C 277.15625 107 273.777344 106.742188 271.582031 106.039062 C 270.152344 105.585938 268.660156 104.699219 267.386719 103.429688 C 253.019531 89.234375 244.671875 75.871094 241.820312 62.578125 Z M 216.195312 80.367188 C 215.972656 78.207031 216.121094 76.148438 216.636719 74.199219 C 216.714844 73.96875 216.796875 73.738281 216.835938 73.53125 C 218.546875 67.929688 223.136719 63.511719 229.097656 62.253906 C 230.132812 62.03125 231.21875 61.886719 232.359375 61.820312 C 232.476562 62.691406 232.617188 63.601562 232.832031 64.523438 C 236.035156 79.652344 245.226562 94.519531 260.894531 110.023438 C 261.9375 111.039062 262.976562 111.871094 264.097656 112.652344 C 261.511719 117.3125 258.148438 120.480469 253.933594 122.390625 C 250.179688 124.105469 245.617188 123.585938 242.101562 121.109375 C 226.371094 109.792969 217.871094 96.472656 216.195312 80.367188 Z M 350.8125 122.476562 C 350.355469 122.847656 349.976562 123.339844 349.667969 123.84375 C 343.277344 131.375 334.980469 138.011719 325.046875 143.027344 C 322.742188 144.175781 321.855469 146.96875 322.972656 149.234375 C 324.121094 151.535156 326.917969 152.425781 329.191406 151.238281 C 332.675781 149.46875 336.019531 147.5 339.183594 145.351562 C 345.316406 141.195312 350.839844 136.324219 355.546875 130.941406 C 357.890625 131.601562 359.835938 133.246094 360.941406 135.578125 C 362.351562 138.53125 362.050781 141.933594 360.128906 144.601562 C 346.363281 163.890625 317.363281 183.433594 292.644531 190.0625 C 289.589844 190.886719 286.484375 189.972656 284.328125 187.582031 C 282.722656 185.828125 282.050781 183.613281 282.308594 181.367188 C 288.398438 181.089844 294.070312 179.140625 299.144531 175.699219 C 303.164062 172.976562 306.792969 169.328125 310.007812 164.71875 C 311.503906 162.640625 310.960938 159.746094 308.882812 158.253906 C 306.804688 156.757812 303.910156 157.300781 302.417969 159.378906 C 296.011719 168.460938 288.019531 172.753906 278.617188 172.078125 C 261.371094 170.855469 241.28125 153.546875 228.667969 128.914062 C 226.375 124.484375 223.570312 120.519531 220.222656 117.160156 C 211.792969 108.65625 202.957031 100.957031 194.371094 93.445312 C 186.082031 86.207031 178.277344 79.410156 172.324219 73.078125 C 164.863281 65.21875 160.871094 56.015625 161.417969 47.820312 C 161.820312 41.507812 166.308594 38.167969 170.328125 37.101562 C 174.347656 36.035156 179.914062 36.820312 183.355469 42.074219 C 191.109375 53.941406 198.929688 64.339844 207.234375 73.703125 C 206.804688 76.128906 206.714844 78.617188 206.992188 81.214844 C 208.960938 99.847656 218.976562 115.753906 236.703125 128.441406 C 242.886719 132.84375 250.945312 133.71875 257.710938 130.671875 C 259.257812 129.980469 260.71875 129.164062 262.097656 128.230469 C 266.523438 125.230469 270.164062 120.984375 272.9375 115.550781 C 276.910156 115.816406 280.875 114.671875 284.691406 112.082031 C 285.136719 111.78125 285.554688 111.4375 286.042969 111.105469 C 289.960938 116.625 295.9375 120.632812 302.96875 121.910156 C 320.976562 125.226562 335.789062 109.316406 345.335938 97.09375 C 346.925781 95.070312 346.5625 92.175781 344.566406 90.625 C 342.539062 89.035156 339.644531 89.398438 338.097656 91.398438 C 325.234375 107.820312 314.566406 114.636719 304.636719 112.839844 C 298.699219 111.769531 293.972656 107.683594 291.644531 102.332031 C 291.589844 102.070312 291.492188 101.839844 291.328125 101.597656 C 290.367188 99.046875 289.882812 96.234375 290.160156 93.324219 C 290.445312 89.457031 291.84375 86.019531 294.5 82.855469 C 296.105469 80.9375 298.308594 79.382812 301.007812 78.382812 C 310.339844 74.839844 319.304688 69.710938 327.550781 63.171875 C 332.714844 59.078125 339.492188 57.625 345.613281 59.222656 C 351.894531 60.886719 357.042969 64.804688 361.335938 71.136719 C 367.386719 88.367188 363.03125 107.199219 350.8125 122.476562 Z M 309.339844 147.039062 C 309.035156 148.078125 308.375 148.9375 307.523438 149.515625 C 306.425781 150.261719 304.960938 150.542969 303.597656 150.105469 C 294.214844 147.28125 286.808594 139.503906 283.285156 128.800781 C 282.476562 126.382812 283.789062 123.777344 286.203125 122.96875 C 288.617188 122.160156 291.226562 123.472656 292.035156 125.886719 C 293.554688 130.488281 297.398438 138.605469 306.246094 141.257812 C 308.675781 142.039062 310.054688 144.601562 309.339844 147.039062 Z M 309.339844 147.039062 " fill-opacity="1" fill-rule="nonzero"/></g></g></g></g></svg>